<svg id="svg" version="1.1" xmlns="http://www.w3.org/2000/svg" xmlns:xlink="http://www.w3.org/1999/xlink" width="400" height="400" viewBox="0, 0, 400,400"><g id="svgg"><path id="path0" d="M363.688 110.641 C 363.643 111.193,363.768 111.543,363.967 111.420 C 364.166 111.297,364.290 110.933,364.243 110.610 C 364.092 109.584,363.774 109.602,363.688 110.641 M49.600 149.992 C 49.600 150.216,49.184 150.400,48.675 150.400 C 48.167 150.400,47.402 150.724,46.975 151.120 C 46.549 151.516,45.902 151.954,45.538 152.093 C 44.586 152.456,42.635 155.471,41.862 157.771 C 41.254 159.582,41.200 166.849,41.200 246.871 L 41.200 334.000 28.200 334.000 L 15.200 334.000 15.200 341.400 C 15.200 346.067,15.348 348.800,15.600 348.800 C 15.820 348.800,16.000 349.419,16.000 350.176 C 16.000 350.933,16.180 351.664,16.400 351.800 C 16.620 351.936,16.800 352.397,16.800 352.824 C 16.800 353.251,16.980 353.600,17.200 353.600 C 17.420 353.600,17.600 353.868,17.600 354.195 C 17.600 354.748,18.084 355.457,19.604 357.134 C 20.388 357.998,21.827 358.800,22.595 358.800 C 22.928 358.800,23.200 358.980,23.200 359.200 C 23.200 359.420,23.560 359.600,24.000 359.600 C 24.440 359.600,24.800 359.780,24.800 360.000 C 24.800 360.220,25.239 360.400,25.776 360.400 C 26.313 360.400,26.864 360.580,27.000 360.800 C 27.164 361.066,78.537 361.200,179.824 361.200 C 281.275 361.200,332.400 361.066,332.400 360.800 C 332.400 360.580,332.929 360.400,333.576 360.400 C 334.223 360.400,334.864 360.220,335.000 360.000 C 335.136 359.780,335.672 359.600,336.190 359.600 C 336.709 359.600,337.193 359.465,337.267 359.300 C 337.340 359.135,337.940 358.703,338.600 358.341 C 339.260 357.978,340.202 357.078,340.693 356.341 C 341.184 355.603,341.769 354.783,341.993 354.517 C 342.217 354.251,342.400 353.566,342.400 352.993 C 342.400 352.401,342.572 352.059,342.800 352.200 C 343.033 352.344,343.200 351.945,343.200 351.247 C 343.200 350.587,343.380 349.936,343.600 349.800 C 343.820 349.664,344.000 348.663,344.000 347.576 C 344.000 346.489,344.180 345.600,344.400 345.600 C 344.648 345.600,344.800 343.400,344.800 339.800 L 344.800 334.000 331.600 334.000 L 318.400 334.000 318.400 254.587 C 318.400 186.703,318.318 175.144,317.837 174.959 C 317.528 174.840,316.403 175.047,315.337 175.419 C 311.888 176.623,308.681 177.392,304.659 177.980 C 303.371 178.168,302.157 178.483,301.960 178.680 C 301.753 178.887,301.560 208.416,301.501 248.619 L 301.400 318.200 180.024 318.301 C 83.187 318.381,58.584 318.300,58.330 317.901 C 57.964 317.324,57.887 168.662,58.252 167.300 C 58.482 166.443,58.685 166.400,62.455 166.400 L 66.416 166.400 66.308 158.100 L 66.200 149.800 57.900 149.692 C 52.453 149.621,49.600 149.724,49.600 149.992 M343.170 159.453 C 342.245 160.456,342.241 160.480,343.092 159.961 C 343.583 159.662,344.072 159.188,344.180 158.909 C 344.466 158.162,344.252 158.277,343.170 159.453 M370.701 162.066 C 370.807 162.470,370.692 162.800,370.447 162.800 C 370.201 162.800,370.000 163.250,370.000 163.800 C 370.000 164.350,369.820 164.800,369.600 164.800 C 369.380 164.800,369.200 165.149,369.200 165.576 C 369.200 166.003,369.020 166.464,368.800 166.600 C 368.580 166.736,368.400 167.197,368.400 167.624 C 368.400 168.051,368.220 168.400,368.000 168.400 C 367.780 168.400,367.600 168.745,367.600 169.167 C 367.600 169.588,367.410 169.997,367.177 170.074 C 366.945 170.152,366.876 170.533,367.025 170.921 C 367.263 171.542,367.783 171.613,371.348 171.513 L 375.400 171.400 375.270 170.205 C 375.198 169.548,374.954 168.895,374.727 168.755 C 374.500 168.615,374.436 168.117,374.584 167.650 C 374.781 167.030,374.684 166.800,374.227 166.800 C 373.873 166.800,373.600 166.462,373.600 166.024 C 373.600 165.597,373.408 165.128,373.173 164.983 C 372.938 164.838,372.845 164.460,372.966 164.144 C 373.087 163.828,372.914 163.465,372.581 163.337 C 372.220 163.199,372.066 162.822,372.200 162.401 C 372.362 161.889,372.163 161.648,371.466 161.515 C 370.694 161.367,370.546 161.473,370.701 162.066 " stroke="none" fill="#374f85" fill-rule="evenodd"></path><path id="path1" d="M286.400 55.043 C 276.120 56.916,270.000 59.209,263.254 63.717 C 235.635 82.175,230.392 118.605,251.612 144.611 C 254.203 147.787,257.623 150.979,260.800 153.188 C 261.570 153.723,262.290 154.266,262.400 154.393 C 263.798 156.013,272.842 160.250,278.191 161.792 C 300.068 168.098,321.489 160.879,336.948 141.993 C 357.676 116.668,347.353 74.708,316.800 60.099 C 308.175 55.975,294.120 53.637,286.400 55.043 M294.808 64.604 C 296.788 65.628,296.800 65.739,296.800 82.917 L 296.800 99.088 298.885 100.644 C 300.032 101.500,301.484 102.965,302.112 103.900 L 303.253 105.600 313.666 105.600 L 324.079 105.600 325.240 106.842 C 326.846 108.562,326.785 110.095,325.040 111.840 L 323.680 113.200 313.340 113.222 L 303.000 113.243 301.800 115.121 C 296.419 123.539,282.800 119.484,282.800 109.464 C 282.800 105.653,284.185 103.034,287.457 100.660 L 289.236 99.369 289.210 83.769 C 289.180 66.761,289.262 66.038,291.352 64.764 C 292.861 63.844,293.299 63.824,294.808 64.604 M65.200 127.000 C 65.200 146.954,65.271 149.600,65.808 149.600 C 66.336 149.600,66.402 150.714,66.308 158.100 L 66.200 166.600 62.400 166.800 L 58.600 167.000 58.491 241.800 C 58.430 282.940,58.479 317.005,58.598 317.500 L 58.815 318.400 179.375 318.400 C 245.683 318.400,300.219 318.291,300.567 318.157 C 301.141 317.937,301.200 311.432,301.200 248.547 L 301.200 179.180 295.900 179.441 C 267.401 180.845,239.839 163.464,228.598 137.000 C 228.224 136.120,227.766 135.040,227.579 134.600 C 227.392 134.160,226.979 132.990,226.661 132.000 L 226.083 130.200 219.141 129.949 C 215.324 129.811,179.305 129.676,139.100 129.649 L 66.000 129.600 66.000 117.000 C 66.000 108.867,65.858 104.400,65.600 104.400 C 65.338 104.400,65.200 112.200,65.200 127.000 M116.674 152.879 C 117.839 153.450,118.549 155.279,118.242 156.916 C 118.043 157.979,116.158 160.069,108.860 167.323 L 99.728 176.400 97.902 176.400 C 96.027 176.400,94.227 175.055,87.127 168.348 C 84.686 166.042,84.707 163.336,87.179 161.876 C 89.360 160.588,90.667 161.055,94.280 164.415 C 97.897 167.778,96.721 168.267,105.126 159.904 C 113.444 151.627,113.746 151.443,116.674 152.879 M158.584 152.619 C 160.556 153.555,161.334 155.794,160.359 157.726 C 160.117 158.207,155.842 162.598,150.859 167.485 C 139.404 178.721,140.413 178.463,133.400 171.947 C 132.300 170.924,130.629 169.393,129.687 168.544 C 126.727 165.877,127.226 162.007,130.612 161.371 C 132.544 161.009,133.424 161.471,136.717 164.577 C 138.246 166.020,139.657 167.200,139.853 167.200 C 140.048 167.200,143.527 163.878,147.582 159.818 C 151.638 155.757,155.327 152.362,155.778 152.272 C 156.230 152.182,156.753 152.084,156.940 152.054 C 157.126 152.025,157.866 152.279,158.584 152.619 M202.100 153.645 C 204.379 156.065,204.240 156.285,193.718 166.865 L 184.237 176.400 182.418 176.390 C 180.045 176.377,170.633 168.249,170.177 165.819 C 169.210 160.666,173.953 159.876,178.805 164.383 C 180.452 165.913,181.989 167.173,182.219 167.183 C 182.450 167.192,185.931 163.880,189.956 159.823 C 193.980 155.766,197.662 152.375,198.137 152.288 C 199.674 152.006,200.976 152.452,202.100 153.645 M379.200 178.553 C 379.200 178.883,379.380 179.264,379.600 179.400 C 379.820 179.536,380.000 179.377,380.000 179.047 C 380.000 178.717,379.820 178.336,379.600 178.200 C 379.380 178.064,379.200 178.223,379.200 178.553 M361.338 182.071 C 361.456 182.440,361.293 182.957,360.976 183.220 C 360.330 183.756,360.179 184.584,360.798 184.201 C 361.575 183.721,361.956 182.573,361.534 181.978 C 361.196 181.501,361.162 181.517,361.338 182.071 M383.206 187.500 C 383.224 188.377,383.988 188.959,383.994 188.100 C 383.997 187.605,383.820 187.200,383.600 187.200 C 383.380 187.200,383.203 187.335,383.206 187.500 M115.889 194.021 C 117.510 194.586,118.597 196.626,118.253 198.459 C 117.922 200.225,100.485 217.765,98.747 218.080 C 96.612 218.467,94.437 216.961,87.348 210.184 C 84.577 207.536,84.627 204.742,87.471 203.393 C 89.718 202.327,90.872 202.923,96.575 208.097 C 97.666 209.086,97.172 209.463,104.615 201.964 C 113.033 193.483,113.467 193.177,115.889 194.021 M360.600 194.337 C 359.427 195.054,358.077 196.400,358.530 196.400 C 358.656 196.400,359.244 195.950,359.838 195.400 C 360.650 194.647,361.354 194.400,362.682 194.400 C 363.757 194.400,364.351 194.244,364.200 194.000 C 363.805 193.361,361.904 193.539,360.600 194.337 M378.600 194.000 C 378.450 194.242,379.004 194.400,380.000 194.400 C 380.996 194.400,381.550 194.242,381.400 194.000 C 381.264 193.780,380.634 193.600,380.000 193.600 C 379.366 193.600,378.736 193.780,378.600 194.000 M148.544 194.254 C 149.748 194.419,150.751 194.860,151.400 195.509 L 152.400 196.509 152.391 209.155 C 152.379 225.920,153.853 224.400,137.606 224.400 C 121.196 224.400,122.400 225.603,122.400 209.200 C 122.400 195.723,122.569 195.058,126.200 194.267 C 127.488 193.986,146.511 193.976,148.544 194.254 M193.633 195.506 L 194.800 196.813 194.800 209.045 C 194.800 225.843,196.194 224.400,179.961 224.400 C 163.481 224.400,164.799 225.729,164.802 209.114 C 164.805 192.697,163.390 194.011,180.933 194.125 L 192.467 194.200 193.633 195.506 M365.670 195.539 C 366.181 196.165,366.663 196.514,366.741 196.315 C 366.908 195.888,365.639 194.400,365.108 194.400 C 364.905 194.400,365.158 194.912,365.670 195.539 M376.911 194.900 C 376.180 195.845,375.854 196.695,376.489 196.000 C 376.790 195.670,377.289 195.175,377.598 194.900 C 377.909 194.624,377.967 194.400,377.729 194.400 C 377.492 194.400,377.124 194.625,376.911 194.900 M383.138 195.600 C 383.798 196.260,384.476 196.800,384.644 196.800 C 384.812 196.800,384.432 196.260,383.800 195.600 C 383.168 194.940,382.490 194.400,382.294 194.400 C 382.099 194.400,382.478 194.940,383.138 195.600 " stroke="none" fill="#edf1f5" fill-rule="evenodd"></path><path id="path2" d="M283.384 39.226 C 283.257 39.432,282.184 39.600,281.000 39.600 C 279.816 39.600,278.736 39.780,278.600 40.000 C 278.464 40.220,277.733 40.400,276.976 40.400 C 276.219 40.400,275.600 40.580,275.600 40.800 C 275.600 41.020,274.880 41.200,274.000 41.200 C 273.120 41.200,272.400 41.380,272.400 41.600 C 272.400 41.820,271.860 42.000,271.200 42.000 C 270.540 42.000,270.000 42.170,270.000 42.377 C 270.000 42.584,269.640 42.685,269.200 42.600 C 268.760 42.515,268.400 42.616,268.400 42.823 C 268.400 43.030,267.986 43.200,267.480 43.200 C 266.974 43.200,266.337 43.423,266.065 43.695 C 265.792 43.968,265.351 44.202,265.085 44.217 C 264.052 44.272,262.400 44.904,262.400 45.243 C 262.400 45.440,262.040 45.600,261.600 45.600 C 261.160 45.600,260.800 45.759,260.800 45.953 C 260.800 46.148,260.485 46.407,260.100 46.529 C 259.413 46.746,257.194 48.005,256.800 48.401 C 256.690 48.511,256.105 48.856,255.500 49.168 C 254.895 49.480,254.400 49.885,254.400 50.068 C 254.400 50.250,254.080 50.400,253.688 50.400 C 253.297 50.400,252.717 50.760,252.400 51.200 C 252.083 51.640,251.575 52.000,251.272 52.000 C 250.969 52.000,250.244 52.502,249.660 53.115 C 249.077 53.729,247.970 54.668,247.200 55.202 C 245.337 56.495,244.787 57.054,245.086 57.352 C 245.222 57.489,245.143 57.600,244.910 57.600 C 244.351 57.600,240.400 61.542,240.400 62.099 C 240.400 62.338,240.281 62.414,240.135 62.269 C 239.990 62.123,239.424 62.662,238.877 63.467 C 238.330 64.271,237.369 65.467,236.742 66.124 C 236.114 66.781,235.600 67.562,235.600 67.859 C 235.600 68.157,235.420 68.400,235.200 68.400 C 234.980 68.400,234.800 68.681,234.800 69.024 C 234.800 69.367,234.620 69.536,234.400 69.400 C 234.180 69.264,234.000 69.441,234.000 69.793 C 234.000 70.145,233.640 70.820,233.200 71.292 C 232.760 71.764,232.400 72.387,232.400 72.675 C 232.400 72.964,232.220 73.200,232.000 73.200 C 231.780 73.200,231.600 73.560,231.600 74.000 C 231.600 74.440,231.465 74.801,231.300 74.801 C 231.135 74.802,230.550 75.792,230.000 77.000 C 229.450 78.208,228.865 79.198,228.700 79.199 C 228.535 79.199,228.400 79.442,228.400 79.739 C 228.400 80.035,228.121 80.835,227.781 81.518 C 227.441 82.200,227.087 83.146,226.996 83.620 C 226.905 84.094,226.621 84.733,226.366 85.041 C 226.111 85.348,226.005 85.600,226.130 85.600 C 226.256 85.600,226.170 86.140,225.940 86.800 L 225.522 88.000 173.604 88.000 C 126.630 88.000,121.662 88.060,121.443 88.633 C 121.309 88.981,121.200 92.421,121.200 96.278 C 121.200 105.336,120.349 107.200,116.212 107.200 C 112.511 107.200,111.408 104.349,111.722 95.600 C 111.858 91.810,111.790 89.125,111.548 88.692 C 111.095 87.884,79.200 87.612,79.200 88.417 C 79.200 88.628,78.606 88.800,77.880 88.800 C 77.154 88.800,76.389 88.965,76.180 89.167 C 75.971 89.368,75.440 89.593,75.000 89.667 C 74.560 89.740,73.909 90.115,73.553 90.500 C 73.197 90.885,72.688 91.200,72.422 91.200 C 72.155 91.200,71.253 91.912,70.417 92.782 C 69.581 93.652,68.785 94.252,68.649 94.115 C 68.512 93.979,68.400 94.257,68.400 94.733 C 68.400 95.210,68.220 95.600,68.000 95.600 C 67.780 95.600,67.600 95.971,67.600 96.424 C 67.600 96.877,67.420 97.136,67.200 97.000 C 66.863 96.792,66.583 98.228,66.753 99.300 C 66.779 99.465,66.620 99.600,66.400 99.600 C 66.180 99.600,66.000 100.575,66.000 101.767 C 66.000 103.126,65.814 104.009,65.500 104.135 C 65.100 104.296,65.100 104.343,65.500 104.368 C 65.889 104.393,66.000 107.204,66.000 117.000 L 66.000 129.600 139.100 129.649 C 179.305 129.676,215.324 129.811,219.141 129.949 L 226.083 130.200 226.661 132.000 C 226.979 132.990,227.392 134.160,227.579 134.600 C 227.766 135.040,228.224 136.120,228.598 137.000 C 239.839 163.464,267.401 180.845,295.900 179.441 L 301.200 179.180 301.200 248.557 C 301.200 295.537,301.068 317.999,300.790 318.137 C 300.565 318.249,300.610 318.294,300.890 318.237 C 301.301 318.154,301.420 304.567,301.501 248.586 C 301.560 208.402,301.753 178.887,301.960 178.680 C 302.157 178.483,303.371 178.168,304.659 177.980 C 308.471 177.422,311.641 176.673,314.800 175.583 C 315.570 175.318,317.190 175.071,318.400 175.035 C 319.892 174.990,321.276 174.625,322.700 173.901 C 323.855 173.314,324.803 172.961,324.806 173.117 C 324.809 173.272,324.944 173.220,325.106 173.000 C 325.268 172.780,326.120 172.226,327.000 171.770 C 329.341 170.555,330.503 169.860,331.087 169.326 C 331.372 169.066,331.964 168.738,332.402 168.599 C 332.841 168.460,333.200 168.178,333.200 167.973 C 333.200 167.768,333.425 167.595,333.700 167.589 C 333.975 167.582,335.003 166.862,335.986 165.989 C 336.968 165.115,337.911 164.400,338.082 164.400 C 338.379 164.400,339.646 163.165,341.425 161.139 C 341.879 160.623,343.184 159.358,344.325 158.328 C 345.466 157.299,346.400 156.253,346.400 156.005 C 346.400 155.756,346.535 155.635,346.700 155.736 C 346.865 155.836,347.628 155.082,348.395 154.059 C 349.163 153.037,350.108 151.909,350.495 151.553 C 350.883 151.197,351.200 150.652,351.200 150.341 C 351.200 150.031,351.560 149.517,352.000 149.200 C 352.440 148.883,352.800 148.303,352.800 147.912 C 352.800 147.520,352.958 147.200,353.151 147.200 C 353.345 147.200,353.727 146.660,354.000 146.000 C 354.273 145.340,354.666 144.800,354.872 144.800 C 355.078 144.800,355.145 144.635,355.020 144.432 C 354.895 144.230,355.064 143.793,355.396 143.461 C 355.728 143.129,356.000 142.574,356.000 142.229 C 356.000 141.883,356.168 141.600,356.373 141.600 C 356.710 141.600,357.221 140.516,357.433 139.351 C 357.521 138.867,358.635 136.241,359.234 135.105 C 359.435 134.723,359.600 134.038,359.600 133.582 C 359.600 133.126,359.780 132.864,360.000 133.000 C 360.233 133.144,360.400 132.737,360.400 132.024 C 360.400 131.351,360.580 130.800,360.800 130.800 C 361.020 130.800,361.200 130.080,361.200 129.200 C 361.200 128.320,361.380 127.600,361.600 127.600 C 361.820 127.600,362.000 126.880,362.000 126.000 C 362.000 125.120,362.180 124.400,362.400 124.400 C 362.620 124.400,362.800 123.399,362.800 122.176 C 362.800 120.760,362.949 120.045,363.210 120.206 C 363.435 120.345,363.594 120.311,363.563 120.130 C 363.233 118.233,363.677 110.399,364.100 110.653 C 364.391 110.828,364.350 110.639,364.000 110.200 C 363.650 109.761,363.609 109.572,363.900 109.747 C 364.256 109.961,364.400 109.696,364.400 108.824 C 364.400 108.151,364.220 107.600,364.000 107.600 C 363.757 107.600,363.600 105.808,363.600 103.024 C 363.600 100.404,363.429 98.342,363.200 98.200 C 362.980 98.064,362.800 97.063,362.800 95.976 C 362.800 94.889,362.620 94.000,362.400 94.000 C 362.180 94.000,362.000 93.381,362.000 92.624 C 362.000 91.867,361.820 91.136,361.600 91.000 C 361.380 90.864,361.200 90.133,361.200 89.376 C 361.200 88.619,361.020 88.000,360.800 88.000 C 360.580 88.000,360.400 87.460,360.400 86.800 C 360.400 86.140,360.220 85.600,360.000 85.600 C 359.780 85.600,359.600 85.161,359.600 84.624 C 359.600 84.087,359.420 83.536,359.200 83.400 C 358.980 83.264,358.800 82.803,358.800 82.376 C 358.800 81.949,358.620 81.600,358.400 81.600 C 358.180 81.600,358.000 81.240,358.000 80.800 C 358.000 79.922,355.261 74.280,354.731 74.067 C 354.549 73.993,354.400 73.588,354.400 73.167 C 354.400 72.745,354.220 72.400,354.000 72.400 C 353.780 72.400,353.600 72.175,353.600 71.900 C 353.599 71.625,353.149 70.877,352.600 70.238 C 352.050 69.599,351.600 68.943,351.600 68.780 C 351.600 68.618,351.060 67.907,350.400 67.200 C 349.740 66.493,349.200 65.766,349.200 65.583 C 349.200 65.400,348.062 64.084,346.672 62.659 C 345.282 61.234,343.707 59.514,343.172 58.838 C 342.637 58.161,341.855 57.606,341.433 57.604 C 341.012 57.602,340.777 57.489,340.913 57.354 C 341.193 57.073,336.834 52.800,336.266 52.800 C 336.061 52.800,335.603 52.484,335.247 52.097 C 334.891 51.711,334.105 51.140,333.500 50.830 C 332.895 50.519,332.400 50.115,332.400 49.932 C 332.400 49.750,332.164 49.600,331.875 49.600 C 331.587 49.600,330.995 49.285,330.560 48.900 C 330.125 48.515,329.506 48.142,329.184 48.070 C 328.863 47.999,328.540 47.774,328.467 47.570 C 328.393 47.367,327.988 47.200,327.567 47.200 C 327.145 47.200,326.797 47.065,326.794 46.900 C 326.785 46.462,322.140 44.371,321.341 44.445 C 321.202 44.458,320.966 44.269,320.815 44.025 C 320.665 43.781,320.131 43.502,319.630 43.406 C 319.129 43.309,318.512 43.060,318.259 42.853 C 318.007 42.645,316.947 42.348,315.904 42.193 C 314.861 42.037,314.107 41.751,314.228 41.555 C 314.348 41.360,313.717 41.200,312.824 41.200 C 311.931 41.200,311.200 41.057,311.200 40.882 C 311.200 40.707,310.525 40.519,309.700 40.464 C 308.875 40.410,308.140 40.193,308.067 39.982 C 307.993 39.772,306.778 39.600,305.367 39.600 C 303.872 39.600,302.800 39.428,302.800 39.188 C 302.800 38.656,283.713 38.694,283.384 39.226 M304.400 55.803 C 323.761 60.131,339.460 74.418,345.331 93.051 C 350.410 109.166,346.862 129.881,336.948 141.993 C 321.489 160.879,300.068 168.098,278.191 161.792 C 272.842 160.250,263.798 156.013,262.400 154.393 C 262.290 154.266,261.570 153.723,260.800 153.188 C 257.623 150.979,254.203 147.787,251.612 144.611 C 246.837 138.759,243.385 132.682,241.381 126.600 C 233.601 102.985,242.416 77.643,263.254 63.717 C 270.000 59.209,276.120 56.916,286.400 55.043 C 288.751 54.615,301.492 55.153,304.400 55.803 M291.322 64.782 C 289.252 66.045,289.150 66.987,289.281 83.780 L 289.400 98.960 293.100 98.982 L 296.800 99.004 296.800 82.876 C 296.800 65.741,296.788 65.628,294.808 64.604 C 293.294 63.821,292.862 63.843,291.322 64.782 M303.464 107.100 C 303.833 108.946,303.826 109.779,303.424 111.700 L 303.111 113.200 313.395 113.200 L 323.680 113.200 325.040 111.840 C 326.785 110.095,326.846 108.562,325.240 106.842 L 324.079 105.600 313.621 105.600 L 303.164 105.600 303.464 107.100 M113.400 152.284 C 112.960 152.385,109.237 155.813,105.126 159.904 C 96.721 168.267,97.897 167.778,94.280 164.415 C 90.667 161.055,89.360 160.588,87.179 161.876 C 84.707 163.336,84.686 166.042,87.127 168.348 C 94.227 175.055,96.027 176.400,97.902 176.400 L 99.728 176.400 108.860 167.323 C 118.580 157.662,119.067 156.977,118.019 154.447 C 117.375 152.890,115.203 151.873,113.400 152.284 M155.778 152.272 C 155.327 152.362,151.638 155.757,147.582 159.818 C 143.527 163.878,140.048 167.200,139.853 167.200 C 139.657 167.200,138.246 166.020,136.717 164.577 C 133.424 161.471,132.544 161.009,130.612 161.371 C 127.226 162.007,126.727 165.877,129.687 168.544 C 130.629 169.393,132.300 170.924,133.400 171.947 C 140.413 178.463,139.404 178.721,150.859 167.485 C 161.358 157.187,161.560 156.906,160.345 154.238 C 159.927 153.322,157.748 151.925,156.940 152.054 C 156.753 152.084,156.230 152.182,155.778 152.272 M198.137 152.288 C 197.662 152.375,193.980 155.766,189.956 159.823 C 185.931 163.880,182.450 167.192,182.219 167.183 C 181.989 167.173,180.452 165.913,178.805 164.383 C 173.953 159.876,169.210 160.666,170.177 165.819 C 170.633 168.249,180.045 176.377,182.418 176.390 L 184.237 176.400 193.718 166.865 C 202.066 158.471,203.200 157.180,203.200 156.072 C 203.200 153.779,200.599 151.836,198.137 152.288 M58.399 166.700 C 58.399 166.865,59.614 166.950,61.099 166.890 C 65.845 166.696,66.313 166.530,62.300 166.464 C 60.155 166.429,58.400 166.535,58.399 166.700 M58.103 242.400 C 58.053 283.650,58.144 317.608,58.306 317.862 C 58.570 318.276,58.564 244.436,58.296 188.800 C 58.239 177.030,58.152 201.150,58.103 242.400 M112.600 194.366 C 111.940 194.785,108.347 198.204,104.615 201.964 C 97.172 209.463,97.666 209.086,96.575 208.097 C 90.872 202.923,89.718 202.327,87.471 203.393 C 84.627 204.742,84.577 207.536,87.348 210.184 C 94.437 216.961,96.612 218.467,98.747 218.080 C 100.485 217.765,117.922 200.225,118.253 198.459 C 118.893 195.044,115.453 192.553,112.600 194.366 M359.672 195.536 C 358.972 196.160,358.400 196.970,358.400 197.336 C 358.400 197.701,358.220 198.000,358.000 198.000 C 357.735 198.000,357.600 219.667,357.600 262.200 L 357.600 326.400 362.400 326.400 L 367.200 326.400 367.200 261.891 L 367.200 197.382 365.971 195.891 C 364.325 193.894,361.678 193.745,359.672 195.536 M377.046 195.463 C 375.495 197.014,375.572 193.198,375.691 262.200 L 375.800 326.200 380.300 326.313 L 384.800 326.426 384.800 261.786 L 384.800 197.146 383.344 195.773 C 381.405 193.944,378.698 193.811,377.046 195.463 " stroke="none" fill="#2cacac" fill-rule="evenodd"></path><path id="path3" d="M111.755 97.800 C 111.756 100.660,111.820 101.778,111.897 100.283 C 111.974 98.789,111.974 96.449,111.896 95.083 C 111.818 93.718,111.755 94.940,111.755 97.800 M120.958 98.200 C 120.958 101.280,121.021 102.487,121.097 100.882 C 121.173 99.278,121.173 96.758,121.096 95.282 C 121.019 93.807,120.957 95.120,120.958 98.200 M292.100 99.087 C 292.705 99.178,293.695 99.178,294.300 99.087 C 294.905 98.995,294.410 98.920,293.200 98.920 C 291.990 98.920,291.495 98.995,292.100 99.087 M370.996 160.807 C 370.630 161.399,370.977 161.702,371.831 161.535 C 372.456 161.413,372.463 161.349,371.898 160.881 C 371.448 160.508,371.193 160.487,370.996 160.807 M370.000 161.976 C 370.000 162.429,370.180 162.800,370.400 162.800 C 370.620 162.800,370.800 162.541,370.800 162.224 C 370.800 161.907,370.620 161.536,370.400 161.400 C 370.180 161.264,370.000 161.523,370.000 161.976 M372.220 162.367 C 372.007 162.712,372.117 163.034,372.527 163.263 C 372.879 163.460,373.072 163.868,372.956 164.170 C 372.840 164.472,372.938 164.838,373.173 164.983 C 373.408 165.128,373.600 165.597,373.600 166.024 C 373.600 166.451,373.780 166.800,374.000 166.800 C 374.618 166.800,374.473 165.979,373.471 163.815 C 372.819 162.405,372.456 161.985,372.220 162.367 M368.400 165.976 C 368.400 166.403,368.220 166.864,368.000 167.000 C 367.780 167.136,367.600 167.507,367.600 167.824 C 367.600 168.141,367.780 168.400,368.000 168.400 C 368.220 168.400,368.400 168.051,368.400 167.624 C 368.400 167.197,368.580 166.736,368.800 166.600 C 369.020 166.464,369.200 166.093,369.200 165.776 C 369.200 165.459,369.020 165.200,368.800 165.200 C 368.580 165.200,368.400 165.549,368.400 165.976 M374.400 168.200 C 374.400 168.530,374.580 168.800,374.800 168.800 C 375.020 168.800,375.200 168.530,375.200 168.200 C 375.200 167.870,375.020 167.600,374.800 167.600 C 374.580 167.600,374.400 167.870,374.400 168.200 M366.800 169.400 C 366.800 169.730,366.980 170.000,367.200 170.000 C 367.420 170.000,367.600 169.730,367.600 169.400 C 367.600 169.070,367.420 168.800,367.200 168.800 C 366.980 168.800,366.800 169.070,366.800 169.400 M375.285 170.300 L 375.400 171.400 371.300 171.514 C 368.668 171.587,367.200 171.480,367.200 171.214 C 367.200 170.986,366.930 170.800,366.600 170.800 C 365.808 170.800,365.830 171.449,366.633 171.757 C 368.670 172.539,378.445 171.725,376.500 170.936 C 376.225 170.825,376.000 170.388,376.000 169.967 C 376.000 169.545,375.813 169.200,375.585 169.200 C 375.357 169.200,375.222 169.695,375.285 170.300 M124.031 195.436 L 122.800 196.471 122.800 209.181 L 122.800 221.891 123.855 222.945 L 124.909 224.000 137.485 224.000 L 150.062 224.000 151.231 222.831 L 152.400 221.662 152.400 209.200 L 152.400 196.738 151.231 195.569 L 150.062 194.400 137.661 194.400 L 125.261 194.400 124.031 195.436 M166.887 195.024 C 164.912 196.408,164.800 197.164,164.800 209.154 C 164.800 225.399,163.382 224.000,179.853 224.000 L 192.355 224.000 193.478 223.035 L 194.600 222.070 194.727 210.735 C 194.880 197.062,194.792 196.227,193.072 195.179 C 191.314 194.107,168.390 193.972,166.887 195.024 M375.953 326.514 C 376.126 326.687,378.233 326.776,380.634 326.712 L 385.000 326.596 380.318 326.398 C 377.744 326.289,375.779 326.341,375.953 326.514 M359.916 326.697 C 361.299 326.775,363.459 326.774,364.716 326.695 C 365.972 326.616,364.840 326.552,362.200 326.553 C 359.560 326.553,358.532 326.618,359.916 326.697 M357.748 331.600 C 357.748 333.910,357.814 334.855,357.895 333.700 C 357.976 332.545,357.976 330.655,357.895 329.500 C 357.814 328.345,357.748 329.290,357.748 331.600 " stroke="none" fill="#d7754e" fill-rule="evenodd"></path><path id="path4" d="M113.839 70.463 C 113.953 70.648,113.833 70.800,113.570 70.800 C 111.567 70.800,111.171 72.606,111.379 80.800 C 111.873 100.281,112.151 104.664,112.948 105.544 C 114.694 107.470,117.937 107.569,119.650 105.749 C 120.708 104.624,120.817 103.182,121.428 82.313 L 121.706 72.826 120.271 71.391 C 118.905 70.025,113.045 69.179,113.839 70.463 M287.539 100.586 C 278.866 106.950,282.700 119.600,293.302 119.600 C 303.547 119.600,307.329 107.027,298.984 100.706 C 296.066 98.497,290.466 98.438,287.539 100.586 M365.835 172.400 C 365.721 172.730,365.376 173.668,365.066 174.485 C 364.757 175.302,364.601 176.067,364.719 176.185 C 364.837 176.303,364.633 176.400,364.267 176.400 C 363.643 176.400,363.381 177.294,363.579 178.740 C 363.620 179.037,363.482 179.174,363.272 179.045 C 363.063 178.915,362.760 179.212,362.599 179.704 C 362.439 180.197,362.277 180.690,362.240 180.800 C 362.202 180.910,361.935 181.427,361.646 181.948 C 361.242 182.677,361.236 182.825,361.622 182.586 C 362.204 182.227,361.833 182.986,360.891 184.085 C 360.567 184.462,360.413 185.056,360.547 185.406 C 360.681 185.755,360.626 185.940,360.424 185.815 C 360.092 185.610,359.679 186.372,359.565 187.400 C 359.541 187.620,359.321 188.160,359.076 188.600 C 358.831 189.040,358.663 189.518,358.702 189.662 C 358.742 189.806,358.510 190.143,358.187 190.411 C 357.758 190.767,357.601 191.774,357.604 194.149 L 357.609 197.400 358.640 196.092 C 360.513 193.714,362.499 193.112,364.753 194.237 C 367.401 195.557,367.213 190.155,367.101 261.632 L 367.000 326.600 362.400 326.712 L 357.800 326.825 357.669 342.255 C 357.577 353.204,357.664 357.608,357.969 357.419 C 358.208 357.271,358.400 357.438,358.400 357.793 C 358.400 358.597,359.605 359.910,361.013 360.641 C 362.336 361.327,381.820 361.479,381.400 360.800 C 381.264 360.580,381.532 360.400,381.996 360.400 C 382.459 360.400,383.274 359.905,383.807 359.300 L 384.775 358.200 384.787 342.513 L 384.800 326.826 380.300 326.713 L 375.800 326.600 375.699 261.688 C 375.587 189.904,375.385 195.564,378.101 194.209 C 379.978 193.273,382.245 193.767,383.607 195.408 C 384.564 196.562,384.830 195.962,384.763 192.800 C 384.725 191.040,384.560 189.600,384.396 189.600 C 384.231 189.600,383.900 189.105,383.659 188.500 C 383.418 187.895,383.007 186.860,382.744 186.200 C 382.482 185.540,382.228 184.910,382.180 184.800 C 382.132 184.690,381.961 184.195,381.800 183.700 C 381.638 183.205,381.370 182.800,381.203 182.800 C 381.037 182.800,380.900 182.367,380.900 181.837 C 380.900 181.307,380.518 180.463,380.050 179.962 C 379.328 179.186,378.947 177.687,379.300 177.008 C 379.355 176.902,378.995 176.532,378.500 176.185 C 377.972 175.815,377.600 175.138,377.600 174.549 C 377.600 173.996,377.328 173.271,376.996 172.939 C 376.664 172.607,376.467 172.215,376.558 172.068 C 376.649 171.920,374.320 171.800,371.382 171.800 C 366.993 171.800,366.004 171.907,365.835 172.400 M132.124 194.299 C 135.162 194.367,140.022 194.367,142.924 194.299 C 145.826 194.231,143.340 194.175,137.400 194.175 C 131.460 194.175,129.086 194.231,132.124 194.299 M174.524 194.299 C 177.562 194.367,182.422 194.367,185.324 194.299 C 188.226 194.231,185.740 194.175,179.800 194.175 C 173.860 194.175,171.486 194.231,174.524 194.299 M122.577 209.200 C 122.577 215.690,122.632 218.345,122.699 215.100 C 122.766 211.855,122.766 206.545,122.699 203.300 C 122.632 200.055,122.577 202.710,122.577 209.200 M131.500 224.299 C 134.855 224.366,140.345 224.366,143.700 224.299 C 147.055 224.232,144.310 224.178,137.600 224.178 C 130.890 224.178,128.145 224.232,131.500 224.299 M173.900 224.299 C 177.255 224.366,182.745 224.366,186.100 224.299 C 189.455 224.232,186.710 224.178,180.000 224.178 C 173.290 224.178,170.545 224.232,173.900 224.299 " stroke="none" fill="#eaca47" fill-rule="evenodd"></path></g></svg>